<?xml version="1.0" encoding="utf-8"?>
<!-- Generator: Adobe Illustrator 27.5.0, SVG Export Plug-In . SVG Version: 6.00 Build 0)  -->
<svg version="1.1" xmlns="http://www.w3.org/2000/svg" xmlns:xlink="http://www.w3.org/1999/xlink" x="0px" y="0px"
	 viewBox="0 0 750 500" style="enable-background:new 0 0 750 500;" xml:space="preserve">
<g id="BACKGROUND">
	<rect style="fill:#FFFFFF;" width="750" height="500"/>
</g>
<g id="OBJECTS">
	<g>
		<path d="M462.508,139.641c5.896-1.105,4.79-4.606,4.79-4.606s16.767-2.764,18.609-3.316c1.842-0.553,14.74-4.054,11.792-6.265
			c-2.948-2.211-12.16-1.842-12.16-1.842s-60.72,10.368-61.272,10.552l7.434,11.369
			C431.701,145.532,456.612,140.747,462.508,139.641z M485.277,125.076c0,0-0.127,0.435,0.479,1.18
			c0.606,0.745-51.582,7.675-51.582,7.675L485.277,125.076z"/>
		<path d="M626.924,187.923c-1.251,0-10.318-2.156-28.69-3.753c-18.916-8.598-30.577-15.845-78.421-15.354
			c-18.424,0.782-30.109,3.38-47.552,8.907c16.705-8.475,43.182-10.032,41.951-10.322c-40.32-9.493-73.816-2.702-73.816-2.702
			l-99.198,18.183l97.127-21.581L368.577,46.875c-2.133-3.499-5.925-5.685-10.023-5.672c-49.091,0.15-51.799,33.091-51.799,33.091
			l-9.827,52.081l-11.792,32.428c0,0-0.86,1.668-2.262,4.358c-9.781,8.573-22.599,16.407-23.681,17.516l19.297,9.477
			c0,0-86.275,13.099-89.371,14.063c-3.096,0.964-18.094,7.835-18.094,7.835c-2.028,1.399,95.349-6.84,95.349-6.84l-76.517,8.941
			c0,0-13.668,3.424-18.125,5.789c-6.791,3.604-8.228,18.182,2.788,24.122l17.113,1.157l16.501,0.26
			c-5.516,2.583-10.134,8.09-10.236,10.494c-13.51,1.798-21.331,0.158-26.853,1.215c-4.94,0.945-2.584,7.448-2.584,7.448
			l91.263,20.024l-41.531,26.469L205.1,343.793c-24.321,40.535-64.531,93.699-61.908,96.793
			c9.581,11.301,40.238,19.896,50.556,17.93c10.318-1.965,98.021-80.333,98.021-80.333c0.028,0.001,0.06,0.001,0.088,0.002
			c13.487-11.637,80.897-70.164,95.324-82.691c-5.601-1.269-12.799-2.568-28.229-1.285c-14.969,1.244-31.084-6.238-31.084-6.238
			s15.033,5.164,29.182,4.734c12.533-0.381,28.836-2.331,35.6-0.491l70.042-23.229c0,0-62.829,26.163-69.462,27.637l-49.075,39.544
			c10.933-1.568,44.161-6.378,49.075-7.607c5.896-1.474,0-4.913,0-4.913s65.839-8.598,64.365-9.335s-5.65-3.194-5.65-3.194
			l33.165-5.65c9.335-6.633-2.211-9.335-2.211-9.335s-0.246-2.457-2.211-4.668c-1.965-2.211-12.283,1.15-12.283,1.15
			c2.457-1.798,2.457-6.063,2.457-6.063l47.168-21.618c0,0,2.948-16.214,4.913-17.197c1.965-0.983,73.558-7.41,110.558-12.294
			c38.653-5.103,61.843-18.35,72.516-26.082c3.918-2.839,3.44-8.881-0.901-11.018C679.774,185.862,629.994,187.923,626.924,187.923z
			 M189.893,223.616c-1.323-4.222,1.267-6.401,1.267-6.401l81.339-7.799L189.893,223.616z M211.829,240.916l56.909-0.838
			l-57.919,3.663C212.412,242.43,211.829,240.916,211.829,240.916z M195.65,265.835c-3.192-3.114,2.64-7.505,2.64-7.505
			l78.223-4.133L195.65,265.835z M320.44,344.53c-1.891,1.891-113.375,95.81-120.745,98.758c-3.138,1.255-15.622,4.597-12.899,2.772
			C206.497,432.852,322.681,342.289,320.44,344.53z M454.756,171.118l-6.991,15.343L443.207,187l7.247-15.424L454.756,171.118z
			 M440.189,172.498l4.301-0.457l-6.991,15.343l-4.558,0.539L440.189,172.498z M369.451,54.398
			c2.34,4.649,54.88,95.74,51.099,88.931c-2.527-4.549-51.953-83.054-54.292-87.703C364.783,52.698,367.982,51.48,369.451,54.398z
			 M365.663,266.792l7.248-15.424l4.301-0.458l-6.991,15.343L365.663,266.792z M380.701,284.646l-9.263,1.095l2.445-11.413
			l9.48-1.009L380.701,284.646z M415.502,277.647l-4.558,0.539l1.203-5.616l4.79-0.51L415.502,277.647z M414.072,292.012
			l48.763-7.48c0,0,0.475,1.168,1.075,1.906S414.072,292.012,414.072,292.012z M445.925,266.405l-63.382,2.579l63.382-5.159
			l44.036,2.579H445.925z M407.393,261.983l-4.558,0.539l7.248-15.424l4.301-0.458L407.393,261.983z M420.348,246.174l4.301-0.458
			l-6.991,15.343l-4.558,0.539L420.348,246.174z M517.046,240.242l-50.116-2.211h-22.479c0,0-95.441,10.686-98.021,10.686
			l90.835-12.529c0,0-44.732-6.686-51.909-7.626c-0.71-0.073-1.062-0.113-0.971-0.113c0.078,0,0.429,0.042,0.971,0.113
			c7.922,0.81,61.305,5.737,61.305,5.737l65.224,3.731l15.108,4.606L517.046,240.242z M583.867,202.04
			c0,0-18.425,11.546-47.905,11.546c-21.654,0-48.396,1.229-92.755-4.667c0,0,13.807-35.836,74.33-36.878
			c53.555-0.923,73.349,12.962,73.349,12.962S585.659,192.981,583.867,202.04z M679.113,195.779
			c-8.353-2.334-21.004-3.348-27.515-3.808c-7.779-0.549-22.629-0.305-14.863-0.86c15.477-1.105,36.42,0.584,45.448,2.98
			C689.722,196.091,686.612,197.874,679.113,195.779z"/>
		<path d="M434.174,151.019l6.59,11.573c6.404-1.081,33.221-4.838,65.671,1.532c9.622-4.493,21.066-10.703,17.981-12.875
			c-4.975-3.501-40.351-4.238-40.351-4.238C470.983,140.378,434.174,151.019,434.174,151.019z M501.88,149.285
			c4.079,0.132,18.671,1.981,15.166,2.825c-0.934,0.225-38.626-1.965-38.626-1.965S482.964,148.671,501.88,149.285z"/>
		<path d="M500.517,206.241c-3.571,0.04-7.304,0.082-11.241,0.082c-10.76,0-23.25-0.313-38.429-1.918
			c-0.23,0.325-0.449,0.643-0.654,0.949c28.061,3.429,48.54,3.917,65.01,3.917c3.937,0,7.669-0.029,11.241-0.056
			c3.298-0.026,6.459-0.05,9.518-0.05c23.054,0,39.162-7.451,44.023-10.016c1.234-4.937,3.247-9.392,4.834-12.438
			c-4.435-2.104-13.28-5.49-27.735-7.799c-1.117,3.689-2.233,8.019-3.026,12.649c-4.861,3.741-20.968,14.607-44.023,14.607
			C506.976,206.167,503.815,206.203,500.517,206.241z"/>
		<path d="M399.863,336.42c-8.107-0.737-36.359,2.702-36.359,2.702c-2.788-2.23-14.426-2.492-19.932-2.487l-51.568,41.552
			c17.41,0.398,95.386-9.593,108.104-11.305c12.775-1.72,46.677-17.442,45.94-21.619C445.311,341.087,407.97,337.157,399.863,336.42
			z M427.198,345.441c-0.933,0.225-63.627-0.088-63.627-0.088s21.619-5.185,40.535-4.571
			C408.184,340.914,430.702,344.596,427.198,345.441z"/>
		<path d="M70.826,245.793c0.143-0.039,0.29-0.079,0.429-0.118c1.774-0.488,7.29-2.925,7.411-3.787
			c0.121-0.861-4.914-2.337-9.461-1.074c-6.561,1.822-26.596,6.928-26.596,6.928s-3.628-1.947-5.264,0.99
			c-1.525,2.737,1.201,5.628,4.824,4.675c0,0,1.395-0.364,3.617-0.947l3.089,1.882l-3.386,0.94c-0.937,0.26-1.485,1.23-1.225,2.167
			c0.26,0.937,1.23,1.485,2.167,1.225l6.565-1.822l92.162,56.145c0,0-28.281,7.527-27.113,9.419
			c1.168,1.892,3.216,2.458,9.137,1.677c5.921-0.781,88.023-15.69,88.023-15.69l38.361-22.544L70.826,245.793z M73.546,250
			c0.184-0.911,60.31,14.192,63.382,14.934c8.311,2.007,68.004,16.297,70.383,17.445C210.354,283.847,72.908,253.152,73.546,250z"/>
		<path d="M123.366,328.119c0,0-51.706,56.67-48.158,62.842c3.549,6.172,30.887,10.74,39.487,7.972
			c8.6-2.768,100.281-87.513,100.281-87.513L123.366,328.119z M175.62,340.845c-0.832,0.686-55.233,46.171-60.434,50.853
			c-2.366,2.129-10.43,3.454-9.581,2.211C107.287,391.448,176.814,339.975,175.62,340.845z"/>
		<path d="M195.237,111.823c-12.057-8.155-39.324,25.491-39.324,25.491l94.292,41.148
			C250.206,178.462,207.294,119.978,195.237,111.823z M233.843,163.474c-16.46-18.969-41.518-44.466-43.483-46.922
			c-2.119-2.648,0.851-1.32,3.787-0.1C196.911,117.601,234.874,164.662,233.843,163.474z"/>
		<path d="M119.079,125.132c1.029-0.314,2.012-0.616,2.92-0.897c1.921-0.594,7.864-3.446,7.967-4.391
			c0.103-0.945-5.449-2.384-10.373-0.849c-7.105,2.216-28.819,8.48-28.819,8.48s-4.03-2.003-5.717,1.261
			c-1.573,3.043,1.505,6.108,5.431,4.942c0,0,0.884-0.26,2.366-0.699l4.113,3.048l-0.285,0.106
			c-0.911,0.339-1.376,1.352-1.037,2.263c0.339,0.911,1.352,1.376,2.263,1.037l2.436-0.905l73.907,54.762l-10.279,2.64l-5.038,2.512
			c-1.221,0.545-2.115,0.95-2.426,1.105c-4.758,2.367,0.071,4.894,5.645,4.717c2.989-0.095,13.523-1.797,22.435-3.315l1.6,1.186
			l84.487-13.111L119.079,125.132z M210.259,170.844c-1.594,3.017-30.885-12.364-55.521-23.83
			c-1.992-0.927-35.992-18.119-33.165-16.705C123.539,131.292,211.708,168.102,210.259,170.844z"/>
	</g>
</g>
</svg>
